<?xml version="1.0" encoding="utf-8"?>
<!DOCTYPE svg PUBLIC "-//W3C//DTD SVG 1.1//EN" "http://www.w3.org/Graphics/SVG/1.1/DTD/svg11.dtd">
<svg xmlns="http://www.w3.org/2000/svg" xmlns:xlink="http://www.w3.org/1999/xlink" version="1.1" baseProfile="full" width="533.333" height="533.333" viewBox="0 0 533.33 533.33" enable-background="new 0 0 533.33 533.33" xml:space="preserve">
	<path fill="#FFFFFF" fill-opacity="1" stroke-width="0.533333" stroke-linejoin="round" d="M 231.197,58.2382L 218.397,58.0605C 218.397,58.0605 209.686,52.5493 218.575,46.6827C 218.575,46.5049 317.242,46.5049 317.242,46.5049C 317.242,46.505 326.486,51.4826 318.131,57.8827C 314.575,58.5938 306.575,58.2383 306.575,58.2383L 306.575,461.438C 306.575,461.438 272.975,512.46 231.197,460.549L 231.197,58.2382 Z "/>
	<path fill="#FF6205" fill-opacity="1" stroke-width="0.533333" stroke-linejoin="round" d="M 240.797,57.8828L 240.797,57.3494L 296.797,57.5273L 296.797,115.127C 296.797,115.127 281.686,68.194 248.62,112.461C 247.197,117.261 241.153,110.15 241.153,107.661C 240.086,106.239 240.797,58.2385 240.797,57.8828 Z "/>
	<g>
		<path fill="#FF6205" fill-opacity="1" stroke-width="0.533333" stroke-linejoin="round" d="M 272.679,145.551C 271.229,145.551 270.504,144.903 270.504,143.608L 270.504,118.693L 260.356,118.693C 259.121,118.693 258.504,118.076 258.504,116.841C 258.504,115.521 258.504,114.758 258.504,114.553C 258.739,113.793 259.301,113.413 260.191,113.413L 280.179,113.413C 282.459,113.413 284.206,114.903 285.421,117.883C 286.356,120.143 286.824,122.616 286.824,125.301L 286.824,129.193C 286.824,130.428 286.011,131.046 284.386,131.046C 283.131,131.046 282.504,130.428 282.504,129.193C 282.504,122.193 281.674,118.693 280.014,118.693L 274.824,118.693L 274.824,143.608C 274.824,144.903 274.109,145.551 272.679,145.551 Z "/>
		<path fill="#FF6205" fill-opacity="1" stroke-width="0.533333" stroke-linejoin="round" d="M 265.276,176.293C 260.761,176.293 258.504,172.881 258.504,166.056L 258.504,153.831C 258.504,151.211 258.976,148.946 259.921,147.036C 261.126,144.461 262.804,143.173 264.954,143.173L 267.781,143.173C 270.101,143.173 271.841,144.383 273.001,146.803C 273.896,148.598 274.344,150.846 274.344,153.546L 274.344,171.013C 275.944,170.743 276.744,168.508 276.744,164.308C 276.744,164.133 276.744,163.926 276.744,163.686C 276.744,163.446 276.744,163.168 276.744,162.853C 276.744,162.838 276.744,162.761 276.744,162.621L 276.744,162.411L 276.744,162.036L 276.744,161.451C 276.744,160.231 277.544,159.621 279.144,159.621C 280.424,159.621 281.064,160.231 281.064,161.451C 281.064,165.401 280.789,168.423 280.239,170.518C 279.219,174.368 277.181,176.293 274.126,176.293L 265.276,176.293 Z M 266.349,171.013C 266.554,171.013 266.809,171.013 267.114,171.013C 267.419,171.013 267.776,171.013 268.186,171.013C 268.596,171.013 268.954,171.013 269.259,171.013C 269.564,171.013 269.819,171.013 270.024,171.013L 270.024,153.703C 270.024,152.683 269.849,151.633 269.499,150.553C 269.049,149.153 268.459,148.453 267.729,148.453L 265.081,148.453C 264.306,148.453 263.714,149.176 263.304,150.621C 262.984,151.541 262.824,152.606 262.824,153.816L 262.824,165.883C 262.824,167.693 262.991,168.936 263.326,169.611C 263.781,170.546 264.789,171.013 266.349,171.013 Z "/>
		<path fill="#FF6205" fill-opacity="1" stroke-width="0.533333" stroke-linejoin="round" d="M 260.431,211.213C 259.146,211.213 258.504,210.446 258.504,208.911L 258.504,190.611C 258.504,187.096 258.841,184.541 259.516,182.946C 260.581,180.111 262.519,178.693 265.329,178.693L 274.216,178.693C 278.781,178.693 281.064,182.321 281.064,189.576L 281.064,209.173C 281.064,210.453 280.344,211.093 278.904,211.093C 277.464,211.093 276.744,210.453 276.744,209.173L 276.744,189.928C 276.744,185.958 275.921,183.973 274.276,183.973L 265.636,183.973C 263.761,183.973 262.824,186.231 262.824,190.746L 262.824,209.361C 262.824,210.596 262.026,211.213 260.431,211.213 Z "/>
		<path fill="#FF6205" fill-opacity="1" stroke-width="0.533333" stroke-linejoin="round" d="M 260.191,244.933C 259.301,244.933 258.739,244.583 258.504,243.883C 258.504,243.663 258.504,242.903 258.504,241.603C 258.504,240.303 259.106,239.653 260.311,239.653L 273.264,239.653C 274.624,239.653 275.516,238.863 275.941,237.283C 276.156,236.243 276.264,234.928 276.264,233.338L 276.264,219.493L 260.311,219.493C 259.106,219.493 258.504,218.843 258.504,217.543C 258.504,216.243 258.504,215.483 258.504,215.263C 258.739,214.563 259.304,214.213 260.199,214.213L 285.129,214.213C 286.039,214.213 286.604,214.563 286.824,215.263C 286.824,215.533 286.824,216.293 286.824,217.543C 286.824,218.843 286.216,219.493 285.001,219.493L 280.584,219.493L 280.584,232.513C 280.584,236.363 280.271,239.066 279.646,240.621C 278.586,243.496 276.529,244.933 273.474,244.933L 260.191,244.933 Z "/>
		<path fill="#FF6205" fill-opacity="1" stroke-width="0.533333" stroke-linejoin="round" d="M 265.516,279.013C 260.841,279.013 258.504,275.138 258.504,267.388L 258.504,259.836C 258.504,257.086 258.996,254.561 259.981,252.261C 261.241,249.296 263.066,247.813 265.456,247.813L 285.136,247.813C 286.041,247.813 286.604,248.163 286.824,248.863C 286.824,249.083 286.824,249.843 286.824,251.143C 286.824,252.443 286.206,253.093 284.971,253.093L 280.584,253.093L 280.584,267.546C 280.584,275.191 278.286,279.013 273.691,279.013L 265.516,279.013 Z M 265.794,273.733L 273.474,273.733C 275.334,273.733 276.264,271.598 276.264,267.328L 276.264,253.093L 265.546,253.093C 264.571,253.093 263.836,254.113 263.341,256.153C 263.176,256.888 263.049,257.614 262.959,258.332C 262.869,259.049 262.824,259.776 262.824,260.511L 262.824,267.283C 262.824,268.313 262.846,269.162 262.891,269.829C 262.936,270.497 262.996,271.003 263.071,271.348C 263.446,272.938 264.354,273.733 265.794,273.733 Z "/>
		<path fill="#FF6205" fill-opacity="1" stroke-width="0.533333" stroke-linejoin="round" d="M 269.214,312.613C 267.834,312.613 267.144,312.153 267.144,311.233L 267.144,286.693L 266.994,286.693C 265.024,286.693 263.756,287.943 263.191,290.443C 263.076,290.988 262.986,291.781 262.921,292.821C 262.856,293.861 262.824,295.183 262.824,296.788C 262.824,298.008 262.026,298.618 260.431,298.618C 259.146,298.618 258.504,298.008 258.504,296.788C 258.504,295.133 258.504,293.778 258.504,292.723C 258.504,291.668 258.504,290.868 258.504,290.323C 258.789,287.598 259.436,285.573 260.446,284.248C 261.881,282.358 263.569,281.413 265.509,281.413L 273.864,281.413C 276.484,281.413 278.426,282.826 279.691,285.651C 280.606,287.581 281.064,290.136 281.064,293.316L 281.064,302.593C 281.064,305.193 280.626,307.348 279.751,309.058C 278.641,311.428 276.966,312.613 274.726,312.613L 269.214,312.613 Z M 271.464,307.333L 274.224,307.333C 275.904,307.333 276.744,304.086 276.744,297.591C 276.744,293.761 276.604,291.136 276.324,289.716C 275.934,287.701 275.171,286.693 274.036,286.693L 271.464,286.693L 271.464,307.333 Z "/>
		<path fill="#FF6205" fill-opacity="1" stroke-width="0.533333" stroke-linejoin="round" d="M 278.649,329.466C 277.379,329.466 276.744,328.733 276.744,327.268C 276.744,327.063 276.744,326.769 276.744,326.387C 276.744,326.004 276.744,325.711 276.744,325.506C 276.744,321.711 275.796,319.813 273.901,319.813L 260.214,319.813C 259.309,319.813 258.739,319.446 258.504,318.711C 258.504,318.411 258.504,317.643 258.504,316.408C 258.504,315.158 259.131,314.533 260.386,314.533L 274.074,314.533C 277.024,314.533 279.024,316.143 280.074,319.363C 280.734,321.223 281.064,323.976 281.064,327.621C 281.064,328.851 280.259,329.466 278.649,329.466 Z "/>
		<path fill="#FF6205" fill-opacity="1" stroke-width="0.533333" stroke-linejoin="round" d="M 269.214,361.333C 267.834,361.333 267.144,360.873 267.144,359.953L 267.144,335.413L 266.994,335.413C 265.024,335.413 263.756,336.663 263.191,339.163C 263.076,339.708 262.986,340.501 262.921,341.541C 262.856,342.581 262.824,343.903 262.824,345.508C 262.824,346.728 262.026,347.338 260.431,347.338C 259.146,347.338 258.504,346.728 258.504,345.508C 258.504,343.853 258.504,342.498 258.504,341.443C 258.504,340.388 258.504,339.588 258.504,339.043C 258.789,336.318 259.436,334.293 260.446,332.968C 261.881,331.078 263.569,330.133 265.509,330.133L 273.864,330.133C 276.484,330.133 278.426,331.546 279.691,334.371C 280.606,336.301 281.064,338.856 281.064,342.036L 281.064,351.313C 281.064,353.913 280.626,356.068 279.751,357.778C 278.641,360.148 276.966,361.333 274.726,361.333L 269.214,361.333 Z M 271.464,356.053L 274.224,356.053C 275.904,356.053 276.744,352.806 276.744,346.311C 276.744,342.481 276.604,339.856 276.324,338.436C 275.934,336.421 275.171,335.413 274.036,335.413L 271.464,335.413L 271.464,356.053 Z "/>
		<path fill="#FF6205" fill-opacity="1" stroke-width="0.533333" stroke-linejoin="round" d="M 283.809,370.168C 282.999,370.168 282.359,369.826 281.889,369.141C 281.484,368.546 281.281,367.818 281.281,366.958C 281.281,366.098 281.484,365.371 281.889,364.776C 282.359,364.091 282.999,363.748 283.809,363.748C 284.624,363.748 285.266,364.091 285.736,364.776C 286.141,365.371 286.344,366.098 286.344,366.958C 286.344,367.818 286.141,368.546 285.736,369.141C 285.266,369.826 284.624,370.168 283.809,370.168 Z M 260.191,369.493C 259.066,369.493 258.504,368.831 258.504,367.506C 258.504,366.216 258.504,365.461 258.504,365.241C 258.739,364.556 259.301,364.213 260.191,364.213L 279.061,364.213C 280.276,364.213 280.884,364.876 280.884,366.201C 280.884,367.476 280.829,368.221 280.719,368.436C 280.489,369.141 279.936,369.493 279.061,369.493L 260.191,369.493 Z "/>
		<path fill="#FF6205" fill-opacity="1" stroke-width="0.533333" stroke-linejoin="round" d="M 260.431,404.893C 259.146,404.893 258.504,404.126 258.504,402.591L 258.504,384.291C 258.504,380.776 258.841,378.221 259.516,376.626C 260.581,373.791 262.519,372.373 265.329,372.373L 274.216,372.373C 278.781,372.373 281.064,376.001 281.064,383.256L 281.064,402.853C 281.064,404.133 280.344,404.773 278.904,404.773C 277.464,404.773 276.744,404.133 276.744,402.853L 276.744,383.608C 276.744,379.638 275.921,377.653 274.276,377.653L 265.636,377.653C 263.761,377.653 262.824,379.911 262.824,384.426L 262.824,403.041C 262.824,404.276 262.026,404.893 260.431,404.893 Z "/>
		<path fill="#FF6205" fill-opacity="1" stroke-width="0.533333" stroke-linejoin="round" d="M 260.191,438.613C 259.301,438.613 258.739,438.263 258.504,437.563C 258.504,437.343 258.504,436.583 258.504,435.283C 258.504,433.983 259.106,433.333 260.311,433.333L 273.264,433.333C 274.624,433.333 275.516,432.543 275.941,430.963C 276.156,429.923 276.264,428.608 276.264,427.018L 276.264,413.173L 260.311,413.173C 259.106,413.173 258.504,412.523 258.504,411.223C 258.504,409.923 258.504,409.163 258.504,408.943C 258.739,408.243 259.304,407.893 260.199,407.893L 285.129,407.893C 286.039,407.893 286.604,408.243 286.824,408.943C 286.824,409.213 286.824,409.973 286.824,411.223C 286.824,412.523 286.216,413.173 285.001,413.173L 280.584,413.173L 280.584,426.193C 280.584,430.043 280.271,432.746 279.646,434.301C 278.586,437.176 276.529,438.613 273.474,438.613L 260.191,438.613 Z "/>
		<path fill="#FF6205" fill-opacity="1" stroke-width="0.533333" stroke-linejoin="round" d="M 269.214,472.213C 267.834,472.213 267.144,471.753 267.144,470.833L 267.144,446.293L 266.994,446.293C 265.024,446.293 263.756,447.543 263.191,450.043C 263.076,450.588 262.986,451.381 262.921,452.421C 262.856,453.461 262.824,454.783 262.824,456.388C 262.824,457.608 262.026,458.218 260.431,458.218C 259.146,458.218 258.504,457.608 258.504,456.388C 258.504,454.733 258.504,453.378 258.504,452.323C 258.504,451.268 258.504,450.468 258.504,449.923C 258.789,447.198 259.436,445.173 260.446,443.848C 261.881,441.958 263.569,441.013 265.509,441.013L 273.864,441.013C 276.484,441.013 278.426,442.426 279.691,445.251C 280.606,447.181 281.064,449.736 281.064,452.916L 281.064,462.193C 281.064,464.793 280.626,466.948 279.751,468.658C 278.641,471.028 276.966,472.213 274.726,472.213L 269.214,472.213 Z M 271.464,466.933L 274.224,466.933C 275.904,466.933 276.744,463.686 276.744,457.191C 276.744,453.361 276.604,450.736 276.324,449.316C 275.934,447.301 275.171,446.293 274.036,446.293L 271.464,446.293L 271.464,466.933 Z "/>
	</g>
</svg>
