<?xml version="1.0" encoding="utf-8"?>
<!DOCTYPE svg PUBLIC "-//W3C//DTD SVG 1.1//EN" "http://www.w3.org/Graphics/SVG/1.1/DTD/svg11.dtd">
<svg xmlns="http://www.w3.org/2000/svg" xmlns:xlink="http://www.w3.org/1999/xlink" version="1.1" baseProfile="full" width="560" height="72.5333" viewBox="0 0 560.00 72.53" enable-background="new 0 0 560.00 72.53" xml:space="preserve">
	<g>
		<path fill="#FFFFFF" fill-opacity="1" stroke-width="0.2" stroke-linejoin="round" d="M 57.4692,52.8609C 57.4692,54.9026 56.44,55.9234 54.3817,55.9234C 53.4817,55.9234 52.715,55.9234 52.0817,55.9234C 51.4483,55.9234 50.9442,55.9234 50.5692,55.9234C 49.3025,55.5318 48.6692,54.5693 48.6692,53.0359L 48.6692,11.5734C 48.6692,10.0401 49.29,9.09011 50.5317,8.72345C 50.8233,8.72345 51.2858,8.72345 51.9192,8.72345C 52.5525,8.72345 53.3733,8.72345 54.3817,8.72345C 56.44,8.72345 57.4692,9.73178 57.4692,11.7484L 57.4692,52.8609 Z "/>
		<path fill="#FFFFFF" fill-opacity="1" stroke-width="0.2" stroke-linejoin="round" d="M 134.269,52.8234C 134.269,54.8901 133.19,55.9234 131.032,55.9234C 128.873,55.9234 127.615,55.9234 127.257,55.9234C 126.065,55.5318 125.469,54.5943 125.469,53.1109L 125.469,29.986C 125.469,27.0109 122.048,25.5234 115.207,25.5234L 114.132,25.5234L 113.644,25.5234C 113.361,25.5234 113.207,25.5234 113.182,25.5234C 109.898,25.6568 107.723,25.8901 106.657,26.2234C 104.265,26.9568 103.069,28.5526 103.069,31.0109L 103.069,53.0984C 103.069,54.5901 102.478,55.5318 101.294,55.9234C 100.936,55.9234 99.6817,55.9234 97.5317,55.9234C 95.3567,55.9234 94.2692,54.8984 94.2692,52.8484L 94.2692,30.8109C 94.2692,28.611 93.4983,27.1193 91.9567,26.3359C 90.8983,25.7943 89.1692,25.5234 86.7692,25.5234L 85.7817,25.5234L 85.1317,25.5234L 84.7942,25.5234C 84.5942,25.5234 84.4817,25.5234 84.4567,25.5234C 83.9483,25.5234 83.5046,25.5234 83.1254,25.5234C 82.7463,25.5234 82.4317,25.5234 82.1817,25.5234C 75.3067,25.5234 71.8692,27.0359 71.8692,30.0609L 71.8692,53.1109C 71.8692,54.5943 71.2859,55.5318 70.1192,55.9234C 69.7525,55.9234 68.4858,55.9234 66.3192,55.9234C 64.1525,55.9234 63.0692,54.8901 63.0692,52.8234L 63.0692,30.5984C 63.0692,22.4151 69.0858,18.3234 81.1192,18.3234C 83.5025,18.3234 85.4463,18.3234 86.9504,18.3234C 88.4546,18.3234 89.5733,18.3234 90.3067,18.3234C 93.4233,18.6651 96.3025,19.6151 98.9442,21.1735C 101.303,19.7151 104.207,18.7651 107.657,18.3234C 109.49,18.3234 112.565,18.3234 116.882,18.3234C 128.473,18.3234 134.269,22.4151 134.269,30.5984L 134.269,52.8234 Z "/>
		<path fill="#FFFFFF" fill-opacity="1" stroke-width="0.2" stroke-linejoin="round" d="M 191.869,44.186C 191.869,52.0109 185.973,55.9234 174.182,55.9234L 148.669,55.9234L 148.669,63.5485C 148.669,65.0068 148.073,65.9318 146.882,66.3234C 146.515,66.3234 145.261,66.3234 143.119,66.3234C 140.953,66.3234 139.869,65.3026 139.869,63.2609L 139.869,29.4985C 139.869,24.9235 142.04,21.7609 146.382,20.0109C 148.898,18.8859 153.032,18.3234 158.782,18.3234L 171.969,18.3234C 185.236,18.3234 191.869,22.0401 191.869,29.4734L 191.869,44.186 Z M 183.069,44.1485L 183.069,29.7109C 183.069,27.7443 181.582,26.4651 178.607,25.8735C 177.407,25.6401 175.178,25.5234 171.919,25.5234L 159.357,25.5234C 152.232,25.5234 148.669,26.986 148.669,29.9109L 148.669,48.7234L 173.794,48.7234C 179.978,48.7234 183.069,47.1984 183.069,44.1485 Z "/>
		<path fill="#FFFFFF" fill-opacity="1" stroke-width="0.2" stroke-linejoin="round" d="M 220.757,22.3484C 220.757,24.4651 219.536,25.5234 217.094,25.5234C 216.753,25.5234 216.263,25.5234 215.625,25.5234C 214.988,25.5234 214.498,25.5234 214.157,25.5234C 207.832,25.5234 204.669,27.1026 204.669,30.2609L 204.669,53.0734C 204.669,54.5818 204.057,55.5318 202.832,55.9234C 202.332,55.9234 201.052,55.9234 198.994,55.9234C 196.911,55.9234 195.869,54.8776 195.869,52.7859L 195.869,29.9734C 195.869,25.0568 198.552,21.7234 203.919,19.9734C 207.019,18.8735 211.607,18.3234 217.682,18.3234C 219.732,18.3234 220.757,19.6651 220.757,22.3484 Z "/>
		<path fill="#FFFFFF" fill-opacity="1" stroke-width="0.2" stroke-linejoin="round" d="M 273.869,38.0734C 273.869,40.3734 273.103,41.5235 271.569,41.5235L 230.669,41.5235L 230.669,41.7735C 230.669,45.0568 232.753,47.1693 236.919,48.1109C 237.828,48.3026 239.148,48.4526 240.882,48.561C 242.615,48.6693 244.819,48.7234 247.494,48.7234C 249.528,48.7234 250.544,50.0526 250.544,52.7109C 250.544,54.8526 249.528,55.9234 247.494,55.9234C 244.736,55.9234 242.478,55.9234 240.719,55.9234C 238.961,55.9234 237.628,55.9234 236.719,55.9234C 232.178,55.4484 228.803,54.3693 226.594,52.686C 223.444,50.2943 221.869,47.4818 221.869,44.2485L 221.869,30.3234C 221.869,25.9568 224.223,22.7193 228.932,20.611C 232.148,19.0859 236.407,18.3234 241.707,18.3234L 257.169,18.3234C 261.503,18.3234 265.094,19.0526 267.944,20.5109C 271.894,22.361 273.869,25.1526 273.869,28.8859L 273.869,38.0734 Z M 265.069,34.3234L 265.069,29.7234C 265.069,26.9235 259.657,25.5234 248.832,25.5234C 242.448,25.5234 238.073,25.7568 235.707,26.2234C 232.348,26.8735 230.669,28.1443 230.669,30.0359L 230.669,34.3234L 265.069,34.3234 Z "/>
		<path fill="#FFFFFF" fill-opacity="1" stroke-width="0.2" stroke-linejoin="round" d="M 324.269,45.2859C 324.269,52.3776 318.836,55.9234 307.969,55.9234L 280.107,55.9234C 278.082,55.9234 277.069,54.8526 277.069,52.7109C 277.069,50.0526 278.078,48.7234 280.094,48.7234L 307.794,48.7234C 312.911,48.7234 315.469,47.5484 315.469,45.1984L 315.469,43.8859C 315.469,41.7776 313.157,40.7234 308.532,40.7234L 295.307,40.7234C 283.148,40.7234 277.069,37.2151 277.069,30.1984L 277.069,28.1235C 277.069,23.4734 280.353,20.4985 286.919,19.1984C 288.169,18.9068 289.998,18.688 292.407,18.5422C 294.815,18.3964 297.844,18.3234 301.494,18.3234C 303.553,18.3234 304.582,19.6735 304.582,22.3735C 304.582,24.4734 303.553,25.5234 301.494,25.5234L 295.557,25.5234C 292.457,25.5234 290.594,25.5234 289.969,25.5234C 287.236,25.8984 285.869,26.7609 285.869,28.111L 285.869,30.0984C 285.869,32.3818 289.223,33.5234 295.932,33.5234L 309.319,33.5234C 319.286,33.5234 324.269,36.8734 324.269,43.5734L 324.269,45.2859 Z "/>
		<path fill="#FFFFFF" fill-opacity="1" stroke-width="0.2" stroke-linejoin="round" d="M 374.669,45.2859C 374.669,52.3776 369.236,55.9234 358.369,55.9234L 330.507,55.9234C 328.482,55.9234 327.469,54.8526 327.469,52.7109C 327.469,50.0526 328.478,48.7234 330.494,48.7234L 358.194,48.7234C 363.311,48.7234 365.869,47.5484 365.869,45.1984L 365.869,43.8859C 365.869,41.7776 363.557,40.7234 358.932,40.7234L 345.707,40.7234C 333.548,40.7234 327.469,37.2151 327.469,30.1984L 327.469,28.1235C 327.469,23.4734 330.753,20.4985 337.319,19.1984C 338.569,18.9068 340.398,18.688 342.807,18.5422C 345.215,18.3964 348.244,18.3234 351.894,18.3234C 353.953,18.3234 354.982,19.6735 354.982,22.3735C 354.982,24.4734 353.953,25.5234 351.894,25.5234L 345.957,25.5234C 342.857,25.5234 340.994,25.5234 340.369,25.5234C 337.636,25.8984 336.269,26.7609 336.269,28.111L 336.269,30.0984C 336.269,32.3818 339.623,33.5234 346.332,33.5234L 359.719,33.5234C 369.686,33.5234 374.669,36.8734 374.669,43.5734L 374.669,45.2859 Z "/>
		<path fill="#FFFFFF" fill-opacity="1" stroke-width="0.2" stroke-linejoin="round" d="M 431.469,45.4234C 431.469,52.9568 423.552,56.7234 407.719,56.7234C 407.277,56.7234 406.709,56.6568 406.013,56.5234C 405.317,56.3901 404.502,56.1901 403.569,55.9234C 403.544,55.9234 403.44,55.9234 403.257,55.9234L 402.907,55.9234L 402.282,55.9234L 401.157,55.9234L 399.419,55.9234C 386.119,55.9234 379.469,52.2651 379.469,44.9484L 379.469,22.1609C 379.469,20.1359 380.552,19.1235 382.719,19.1235C 384.886,19.1235 386.152,19.1235 386.519,19.1235C 387.686,19.5068 388.269,20.4235 388.269,21.8735L 388.269,44.561C 388.269,47.336 392.065,48.7234 399.657,48.7234L 411.507,48.7234C 418.948,48.7234 422.669,47.3735 422.669,44.6734L 422.669,21.8735C 422.669,20.4235 423.257,19.5068 424.432,19.1235C 424.79,19.1235 426.052,19.1235 428.219,19.1235C 430.386,19.1235 431.469,20.1526 431.469,22.2109L 431.469,45.4234 Z "/>
		<path fill="#FFFFFF" fill-opacity="1" stroke-width="0.2" stroke-linejoin="round" d="M 508.269,52.8234C 508.269,54.8901 507.19,55.9234 505.032,55.9234C 502.873,55.9234 501.615,55.9234 501.257,55.9234C 500.065,55.5318 499.469,54.5943 499.469,53.1109L 499.469,29.986C 499.469,27.0109 496.048,25.5234 489.207,25.5234L 488.132,25.5234L 487.644,25.5234C 487.361,25.5234 487.207,25.5234 487.182,25.5234C 483.898,25.6568 481.723,25.8901 480.657,26.2234C 478.265,26.9568 477.069,28.5526 477.069,31.0109L 477.069,53.0984C 477.069,54.5901 476.478,55.5318 475.294,55.9234C 474.936,55.9234 473.682,55.9234 471.532,55.9234C 469.357,55.9234 468.269,54.8984 468.269,52.8484L 468.269,30.8109C 468.269,28.611 467.498,27.1193 465.957,26.3359C 464.898,25.7943 463.169,25.5234 460.769,25.5234L 459.782,25.5234L 459.132,25.5234L 458.794,25.5234C 458.594,25.5234 458.482,25.5234 458.457,25.5234C 457.948,25.5234 457.505,25.5234 457.125,25.5234C 456.746,25.5234 456.432,25.5234 456.182,25.5234C 449.307,25.5234 445.869,27.0359 445.869,30.0609L 445.869,53.1109C 445.869,54.5943 445.286,55.5318 444.119,55.9234C 443.753,55.9234 442.486,55.9234 440.319,55.9234C 438.152,55.9234 437.069,54.8901 437.069,52.8234L 437.069,30.5984C 437.069,22.4151 443.086,18.3234 455.119,18.3234C 457.503,18.3234 459.446,18.3234 460.95,18.3234C 462.455,18.3234 463.573,18.3234 464.307,18.3234C 467.423,18.6651 470.303,19.6151 472.944,21.1735C 475.303,19.7151 478.207,18.7651 481.657,18.3234C 483.49,18.3234 486.565,18.3234 490.882,18.3234C 502.473,18.3234 508.269,22.4151 508.269,30.5984L 508.269,52.8234 Z "/>
	</g>
</svg>
