<?xml version="1.0" encoding="utf-8"?>
<!DOCTYPE svg PUBLIC "-//W3C//DTD SVG 1.1//EN" "http://www.w3.org/Graphics/SVG/1.1/DTD/svg11.dtd">
<svg xmlns="http://www.w3.org/2000/svg" xmlns:xlink="http://www.w3.org/1999/xlink" version="1.1" baseProfile="full" width="44.1115" height="9.51952" viewBox="0 0 44.11 9.52" enable-background="new 0 0 44.11 9.52" xml:space="preserve">
	<path fill="#FFFFFF" fill-opacity="1" stroke-width="0.2" stroke-linejoin="round" d="M 0,3.83978L 0,7.51959C -4.76837e-007,7.51959 0.159995,9.11951 5.9997,9.51947C 6.31968,9.43951 38.5581,9.51947 38.5581,9.51947C 38.5581,9.51947 43.7578,9.11951 44.0778,7.51959C 44.1578,7.51959 44.0778,3.83978 44.0778,3.83978C 44.0778,3.83978 43.9178,2.63983 39.678,1.99988C 39.838,2.0799 13.0393,1.99988 13.0393,1.99988L 14.4793,0L 9.27954,1.8399L 4.15979,1.99988C 4.15979,1.99988 0.0799952,2.87982 0,3.83978 Z "/>
	<g>
		<path fill="#0260D2" fill-opacity="1" stroke-width="0.2" stroke-linejoin="round" d="M 10.6968,7.75214C 10.6968,7.94391 10.5776,8.03979 10.3392,8.03979C 10.0762,8.03979 9.92343,8.03979 9.88101,8.03979L 6.16343,6.05566L 6.16343,7.72797C 6.16343,7.93585 6.05482,8.03979 5.83762,8.03979C 5.61701,8.03979 5.48889,8.03979 5.45326,8.03979C 5.32938,7.99994 5.26744,7.90405 5.26744,7.75214L 5.26744,3.52167C 5.26744,3.36725 5.32938,3.27136 5.45326,3.23407C 5.50247,3.23407 5.63059,3.23407 5.83762,3.23407C 6.05482,3.23407 6.16343,3.33673 6.16343,3.54205L 6.16343,5.15582L 9.74228,3.23407C 9.81101,3.23407 9.97137,3.23407 10.2234,3.23407C 10.4592,3.23407 10.5772,3.32867 10.5772,3.51788C 10.5772,3.63922 10.5072,3.73804 10.3672,3.81439L 6.93851,5.59363L 10.4855,7.45178C 10.6264,7.5282 10.6968,7.6283 10.6968,7.75214 Z "/>
		<path fill="#0260D2" fill-opacity="1" stroke-width="0.2" stroke-linejoin="round" d="M 15.9378,6.84979C 15.9378,7.2868 15.7193,7.6062 15.2824,7.80817C 14.9718,7.96259 14.5591,8.03979 14.044,8.03979L 12.6224,8.03979C 12.1532,8.03979 11.7281,7.9613 11.3472,7.80432C 10.878,7.5965 10.6434,7.27832 10.6434,6.84979L 10.6434,5.44092C 10.6434,5.01245 10.8767,4.68793 11.3433,4.46729C 11.6861,4.29675 12.1112,4.21149 12.6186,4.21149L 14.044,4.21149C 15.3066,4.21149 15.9378,4.61877 15.9378,5.43329L 15.9378,6.84979 Z M 15.0418,6.83325L 15.0418,5.39001C 15.0418,5.09308 14.6982,4.94458 14.0109,4.94458L 12.6504,4.94458C 12.3959,4.94458 12.1685,4.97595 11.9682,5.03876C 11.6823,5.12952 11.5393,5.2674 11.5393,5.45239L 11.5393,6.83325C 11.5393,7.01062 11.6849,7.14087 11.9759,7.224C 12.1685,7.27911 12.3946,7.3067 12.6542,7.3067L 14.0148,7.3067C 14.2337,7.3067 14.4411,7.27533 14.6371,7.21252C 14.9069,7.12683 15.0418,7.00043 15.0418,6.83325 Z "/>
		<path fill="#0260D2" fill-opacity="1" stroke-width="0.2" stroke-linejoin="round" d="M 21.6395,7.72418C 21.6395,7.93457 21.5288,8.03979 21.3074,8.03979C 21.0885,8.03979 20.9608,8.03979 20.9243,8.03979C 20.8038,7.99994 20.7436,7.90405 20.7436,7.75214L 20.7436,5.31238C 20.7436,5.13928 20.6074,5.026 20.335,4.9726C 20.2875,4.96155 20.2141,4.9541 20.1148,4.95032C 20.0156,4.94647 19.89,4.94458 19.7381,4.94458L 18.3636,4.94458C 18.2253,4.94458 18.1088,4.94714 18.0142,4.95221C 17.9196,4.95728 17.8448,4.96533 17.7896,4.97638C 17.5325,5.02899 17.404,5.14142 17.404,5.31366L 17.404,7.72668C 17.404,7.93542 17.2937,8.03979 17.0731,8.03979C 16.8525,8.03979 16.7235,8.03979 16.6862,8.03979C 16.5674,7.99994 16.508,7.90363 16.508,7.75092L 16.508,5.30981C 16.508,4.57764 17.1409,4.21149 18.4069,4.21149L 19.7598,4.21149C 21.0129,4.21149 21.6395,4.57208 21.6395,5.29327L 21.6395,7.72418 Z "/>
		<path fill="#0260D2" fill-opacity="1" stroke-width="0.2" stroke-linejoin="round" d="M 25.1548,4.70148C 25.1548,4.91785 25.0504,5.026 24.8417,5.026L 23.513,5.026L 23.513,7.73309C 23.513,7.93756 23.4027,8.03979 23.1821,8.03979C 22.964,8.03979 22.8363,8.03979 22.799,8.03979C 22.6776,7.99823 22.617,7.90405 22.617,7.75726L 22.617,5.026C 22.5058,5.026 22.4153,5.02393 22.3453,5.01965C 22.2753,5.01544 22.2254,5.01074 22.1957,5.00568C 22.0634,4.95813 21.9972,4.84277 21.9972,4.65948C 21.9972,4.4762 22.0634,4.36084 22.1957,4.31329C 22.2254,4.30823 22.2753,4.30353 22.3453,4.29932C 22.4153,4.29504 22.5058,4.29297 22.617,4.29297L 22.617,3.54333C 22.617,3.33716 22.7273,3.23407 22.9479,3.23407C 23.1659,3.23407 23.2936,3.23407 23.331,3.23407C 23.4523,3.27478 23.513,3.37109 23.513,3.52295L 23.513,4.29297L 24.8417,4.29297C 25.0504,4.29297 25.1548,4.42914 25.1548,4.70148 Z "/>
		<path fill="#0260D2" fill-opacity="1" stroke-width="0.2" stroke-linejoin="round" d="M 31.0881,6.89056C 31.0881,7.65674 30.509,8.03979 29.3509,8.03979L 27.2764,8.03979C 26.8318,8.03979 26.4474,7.95959 26.1233,7.79926C 25.6863,7.59479 25.4678,7.31012 25.4678,6.94525L 25.4678,6.46545C 25.4678,6.07178 25.6732,5.77649 26.0838,5.57965C 26.3884,5.4278 26.7698,5.35187 27.228,5.35187L 30.1921,5.35187C 30.1463,5.08032 29.767,4.94458 28.9487,4.94458C 28.908,4.94458 28.8609,4.94458 28.768,4.94458L 28.7323,4.94458L 28.6687,4.94458L 28.5694,4.94458C 28.3624,4.94458 28.2589,4.80884 28.2589,4.53729C 28.2589,4.32007 28.3624,4.21149 28.5694,4.21149C 29.2397,4.21149 29.7526,4.25818 30.1081,4.3515C 30.7615,4.5246 31.0881,4.87036 31.0881,5.38873L 31.0881,6.89056 Z M 30.1921,6.70856C 30.1921,6.67377 30.1921,6.63049 30.1921,6.57874C 30.1921,6.52698 30.1921,6.46631 30.1921,6.39673C 30.1921,6.32715 30.1921,6.26648 30.1921,6.21472C 30.1921,6.16296 30.1921,6.11969 30.1921,6.0849L 27.2547,6.0849C 27.0816,6.0849 26.9035,6.11462 26.7202,6.17401C 26.4826,6.25037 26.3638,6.35046 26.3638,6.47437L 26.3638,6.92365C 26.3638,7.05518 26.4864,7.1557 26.7316,7.22528C 26.8878,7.27954 27.0685,7.3067 27.2738,7.3067L 29.3216,7.3067C 29.6287,7.3067 29.8396,7.27832 29.9541,7.22144C 30.1128,7.14423 30.1921,6.97327 30.1921,6.70856 Z "/>
		<path fill="#0260D2" fill-opacity="1" stroke-width="0.2" stroke-linejoin="round" d="M 36.1,7.74835C 36.1,7.94263 35.9821,8.03979 35.7462,8.03979C 35.5231,8.03979 35.3877,8.03979 35.3402,8.03979L 32.4728,6.58002L 32.4728,7.74963C 32.4728,7.89978 32.413,7.99652 32.2934,8.03979C 32.256,8.03979 32.1288,8.03979 31.9116,8.03979C 31.6884,8.03979 31.5768,7.93585 31.5768,7.72797L 31.5768,3.54205C 31.5768,3.33673 31.6884,3.23407 31.9116,3.23407C 32.1203,3.23407 32.2488,3.23407 32.2972,3.23407C 32.4143,3.27136 32.4728,3.36682 32.4728,3.52039L 32.4728,5.72345L 32.4766,5.72345L 35.3046,4.30695C 35.3759,4.28577 35.5031,4.27515 35.6864,4.27515C 35.9223,4.27515 36.0402,4.37183 36.0402,4.56531C 36.0402,4.69257 35.9685,4.7923 35.8251,4.86438L 33.2568,6.14221L 35.8849,7.448C 36.0283,7.51929 36.1,7.61938 36.1,7.74835 Z "/>
		<path fill="#0260D2" fill-opacity="1" stroke-width="0.2" stroke-linejoin="round" d="M 39.4091,4.70148C 39.4091,4.91785 39.3047,5.026 39.096,5.026L 37.7673,5.026L 37.7673,7.73309C 37.7673,7.93756 37.657,8.03979 37.4364,8.03979C 37.2183,8.03979 37.0906,8.03979 37.0533,8.03979C 36.932,7.99823 36.8713,7.90405 36.8713,7.75726L 36.8713,5.026C 36.7601,5.026 36.6696,5.02393 36.5996,5.01965C 36.5296,5.01544 36.4797,5.01074 36.45,5.00568C 36.3177,4.95813 36.2515,4.84277 36.2515,4.65948C 36.2515,4.4762 36.3177,4.36084 36.45,4.31329C 36.4797,4.30823 36.5296,4.30353 36.5996,4.29932C 36.6696,4.29504 36.7601,4.29297 36.8713,4.29297L 36.8713,3.54333C 36.8713,3.33716 36.9816,3.23407 37.2022,3.23407C 37.4203,3.23407 37.548,3.23407 37.5853,3.23407C 37.7066,3.27478 37.7673,3.37109 37.7673,3.52295L 37.7673,4.29297L 39.096,4.29297C 39.3047,4.29297 39.4091,4.42914 39.4091,4.70148 Z "/>
	</g>
</svg>
