<?xml version="1.0" encoding="utf-8"?>
<!DOCTYPE svg PUBLIC "-//W3C//DTD SVG 1.1//EN" "http://www.w3.org/Graphics/SVG/1.1/DTD/svg11.dtd">
<svg xmlns="http://www.w3.org/2000/svg" xmlns:xlink="http://www.w3.org/1999/xlink" version="1.1" baseProfile="full" width="462.293" height="92.9155" viewBox="0 0 462.29 92.92" enable-background="new 0 0 462.29 92.92" xml:space="preserve">
	<g>
		<path fill="#FFFFFF" fill-opacity="1" stroke-width="0.533333" stroke-linejoin="round" d="M 112.717,82.5625C 112.717,89.4645 109.679,92.9155 103.602,92.9155C 100.825,92.9155 97.6675,91.4399 94.1293,88.4887L 16.7552,22.2055L 16.7552,85.8707C 16.7552,88.806 15.5494,90.6466 13.1376,91.3923C 12.4236,91.3923 11.4637,91.3923 10.2578,91.3923C 9.05196,91.3923 7.59222,91.3923 5.87862,91.3923C 1.95954,91.3923 0,89.4328 0,85.5137L 0,9.82945C 0,3.27647 2.84014,1.52588e-005 8.52042,1.52588e-005C 12.1063,1.52588e-005 15.7874,1.60255 19.5637,4.80763L 95.9619,70.353L 95.9619,6.9734C 95.9619,4.08568 97.1677,2.26894 99.5795,1.52321C 100.278,1.52321 101.226,1.52321 102.424,1.52321C 103.622,1.52321 105.077,1.52321 106.791,1.52321C 110.742,1.52321 112.717,3.45897 112.717,7.33043L 112.717,82.5625 Z "/>
		<path fill="#FFFFFF" fill-opacity="1" stroke-width="0.533333" stroke-linejoin="round" d="M 220.865,57.4058C 220.865,61.785 219.405,63.9746 216.485,63.9746L 138.612,63.9746L 138.612,64.4506C 138.612,70.7021 142.578,74.7243 150.512,76.5172C 152.241,76.8822 154.756,77.1678 158.056,77.374C 161.357,77.5803 165.553,77.6834 170.646,77.6834C 174.518,77.6834 176.454,80.2142 176.454,85.2757C 176.454,89.3534 174.518,91.3923 170.646,91.3923C 165.395,91.3923 161.095,91.3923 157.747,91.3923C 154.399,91.3923 151.86,91.3923 150.131,91.3923C 141.483,90.4879 135.057,88.4331 130.853,85.228C 124.855,80.6743 121.856,75.3193 121.856,69.163L 121.856,42.6497C 121.856,34.3356 126.339,28.1714 135.303,24.1571C 141.428,21.2535 149.536,19.8017 159.627,19.8017L 189.068,19.8017C 197.318,19.8017 204.157,21.19 209.583,23.9667C 217.104,27.4891 220.865,32.8045 220.865,39.9127L 220.865,57.4058 Z M 204.109,50.2658L 204.109,41.5073C 204.109,36.1761 193.804,33.5105 173.193,33.5105C 161.039,33.5105 152.709,33.9548 148.203,34.8433C 141.809,36.0809 138.612,38.5006 138.612,42.1023L 138.612,50.2658L 204.109,50.2658 Z "/>
		<path fill="#FFFFFF" fill-opacity="1" stroke-width="0.533333" stroke-linejoin="round" d="M 367.283,24.8473C 367.283,25.9421 366.918,27.1797 366.188,28.5601L 337.104,84.8949C 335.406,88.211 332.233,89.8691 327.584,89.8691C 323.11,89.8691 320.008,88.2745 318.278,85.0853L 295.145,42.1737L 271.654,86.3943C 269.861,89.7263 266.664,91.3923 262.063,91.3923C 257.239,91.3923 253.986,89.6549 252.305,86.1801L 223.816,28.7267C 223.134,26.7592 222.792,25.4978 222.792,24.9425C 222.792,21.5153 225.244,19.8017 230.147,19.8017C 234.415,19.8017 237.192,20.9837 238.477,23.3479L 262.562,70.6862L 286.077,27.3225C 287.917,23.8477 290.94,22.1103 295.145,22.1103C 299.207,22.1103 302.182,23.8239 304.07,27.2511L 327.584,70.6862L 351.598,23.3479C 352.788,20.9837 355.541,19.8017 359.857,19.8017C 364.807,19.8017 367.283,21.4835 367.283,24.8473 Z "/>
		<path fill="#FFFFFF" fill-opacity="1" stroke-width="0.533333" stroke-linejoin="round" d="M 462.293,71.1384C 462.293,84.641 451.947,91.3923 431.257,91.3923L 378.207,91.3923C 374.351,91.3923 372.424,89.3534 372.424,85.2757C 372.424,80.2142 374.343,77.6834 378.183,77.6834L 430.924,77.6834C 440.666,77.6834 445.537,75.4462 445.537,70.9718L 445.537,68.4728C 445.537,64.4585 441.134,62.4514 432.328,62.4514L 407.148,62.4514C 383.998,62.4514 372.424,55.7715 372.424,42.4117L 372.424,38.4609C 372.424,29.6073 378.675,23.9429 391.178,21.4677C 393.558,20.9123 397.041,20.4958 401.626,20.2182C 406.212,19.9405 411.979,19.8017 418.929,19.8017C 422.848,19.8017 424.807,22.3721 424.807,27.5129C 424.807,31.5113 422.848,33.5105 418.929,33.5105L 407.624,33.5105C 401.721,33.5105 398.175,33.5105 396.985,33.5105C 391.781,34.2245 389.179,35.8667 389.179,38.4371L 389.179,42.2213C 389.179,46.5688 395.565,48.7426 408.338,48.7426L 433.828,48.7426C 452.804,48.7426 462.293,55.121 462.293,67.8778L 462.293,71.1384 Z "/>
	</g>
</svg>
