<?xml version="1.0" encoding="utf-8"?>
<!DOCTYPE svg PUBLIC "-//W3C//DTD SVG 1.1//EN" "http://www.w3.org/Graphics/SVG/1.1/DTD/svg11.dtd">
<svg xmlns="http://www.w3.org/2000/svg" xmlns:xlink="http://www.w3.org/1999/xlink" version="1.1" baseProfile="full" width="533.333" height="560" viewBox="0 0 533.33 560.00" enable-background="new 0 0 533.33 560.00" xml:space="preserve">
	<ellipse fill="#FFFFFF" fill-opacity="1" stroke-width="0.2" stroke-linejoin="round" cx="116.121" cy="80.9934" rx="61.5969" ry="61.5969"/>
	<ellipse fill="#FFFFFF" fill-opacity="1" stroke-width="0.2" stroke-linejoin="round" cx="410.89" cy="199.797" rx="40.1832" ry="40.1832"/>
	<path fill="#FFFFFF" fill-opacity="1" stroke-width="0.2" stroke-linejoin="round" d="M 81.4916,407.584L 115.309,349.011L 47.6744,349.011L 81.4916,407.584 Z "/>
	<path fill="#FFFFFF" fill-opacity="1" stroke-width="0.2" stroke-linejoin="round" d="M 388.299,412.851L 410.36,374.64L 366.238,374.64L 388.299,412.851 Z "/>
	<path fill="#FFFFFF" fill-opacity="1" stroke-width="0.2" stroke-linejoin="round" d="M 158.299,405.984L 192.117,347.411L 124.482,347.411L 158.299,405.984 Z "/>
	<path fill="#FFFFFF" fill-opacity="1" stroke-width="0.2" stroke-linejoin="round" d="M 438.405,411.807L 460.466,373.596L 416.344,373.596L 438.405,411.807 Z "/>
	<g>
		<path fill="#FFFFFF" fill-opacity="1" stroke-width="0.2" stroke-linejoin="round" d="M 79.2303,453.82C 79.2303,460.58 73.4236,463.96 61.8103,463.96L 51.1503,463.96C 46.4436,463.96 42.7336,463.36 40.0203,462.16C 35.867,460.467 33.7903,457.697 33.7903,453.85L 33.7903,436.43C 33.7903,429.61 39.577,426.2 51.1503,426.2L 61.8103,426.2C 67.217,426.2 71.0303,426.677 73.2503,427.63C 77.237,429.177 79.2303,432.11 79.2303,436.43L 79.2303,453.82 Z M 72.1903,453.62L 72.1903,436.69C 72.1903,433.537 68.767,431.96 61.9203,431.96L 51.1903,431.96C 44.2836,431.96 40.8303,433.537 40.8303,436.69L 40.8303,453.62C 40.8303,456.674 44.2836,458.2 51.1903,458.2L 61.9503,458.2C 68.777,458.2 72.1903,456.674 72.1903,453.62 Z "/>
		<path fill="#FFFFFF" fill-opacity="1" stroke-width="0.2" stroke-linejoin="round" d="M 102.98,437.1C 102.98,438.794 102.004,439.64 100.05,439.64C 99.777,439.64 99.3853,439.64 98.8753,439.64C 98.3653,439.64 97.9736,439.64 97.7003,439.64C 92.6403,439.64 90.1103,440.904 90.1103,443.43L 90.1103,461.68C 90.1103,462.887 89.6203,463.647 88.6403,463.96C 88.2403,463.96 87.217,463.96 85.5703,463.96C 83.9036,463.96 83.0703,463.124 83.0703,461.45L 83.0703,443.2C 83.0703,439.267 85.217,436.6 89.5103,435.2C 91.9903,434.32 95.6603,433.88 100.52,433.88C 102.16,433.88 102.98,434.954 102.98,437.1 Z "/>
		<path fill="#FFFFFF" fill-opacity="1" stroke-width="0.2" stroke-linejoin="round" d="M 114.69,430.22C 114.69,431.3 114.234,432.154 113.32,432.78C 112.527,433.32 111.557,433.59 110.41,433.59C 109.264,433.59 108.294,433.32 107.5,432.78C 106.587,432.154 106.13,431.3 106.13,430.22C 106.13,429.134 106.587,428.277 107.5,427.65C 108.294,427.11 109.264,426.84 110.41,426.84C 111.557,426.84 112.527,427.11 113.32,427.65C 114.234,428.277 114.69,429.134 114.69,430.22 Z M 113.79,461.71C 113.79,463.21 112.907,463.96 111.14,463.96C 109.42,463.96 108.414,463.96 108.12,463.96C 107.207,463.647 106.75,462.897 106.75,461.71L 106.75,436.55C 106.75,434.93 107.634,434.12 109.4,434.12C 111.1,434.12 112.094,434.194 112.38,434.34C 113.32,434.647 113.79,435.384 113.79,436.55L 113.79,461.71 Z "/>
		<path fill="#FFFFFF" fill-opacity="1" stroke-width="0.2" stroke-linejoin="round" d="M 159.23,449.68C 159.23,451.52 158.617,452.44 157.39,452.44L 124.67,452.44L 124.67,452.64C 124.67,455.267 126.337,456.957 129.67,457.71C 130.397,457.864 131.454,457.984 132.84,458.07C 134.227,458.157 135.99,458.2 138.13,458.2C 139.757,458.2 140.57,459.264 140.57,461.39C 140.57,463.104 139.757,463.96 138.13,463.96C 135.924,463.96 134.117,463.96 132.71,463.96C 131.304,463.96 130.237,463.96 129.51,463.96C 125.877,463.58 123.177,462.717 121.41,461.37C 118.89,459.457 117.63,457.207 117.63,454.62L 117.63,443.48C 117.63,439.987 119.514,437.397 123.28,435.71C 125.854,434.49 129.26,433.88 133.5,433.88L 145.87,433.88C 149.337,433.88 152.21,434.464 154.49,435.63C 157.65,437.11 159.23,439.344 159.23,442.33L 159.23,449.68 Z M 152.19,446.68L 152.19,443C 152.19,440.76 147.86,439.64 139.2,439.64C 134.094,439.64 130.594,439.827 128.7,440.2C 126.014,440.72 124.67,441.737 124.67,443.25L 124.67,446.68L 152.19,446.68 Z "/>
		<path fill="#FFFFFF" fill-opacity="1" stroke-width="0.2" stroke-linejoin="round" d="M 203.39,461.48C 203.39,463.134 202.52,463.96 200.78,463.96C 199.06,463.96 198.057,463.96 197.77,463.96C 196.824,463.647 196.35,462.894 196.35,461.7L 196.35,442.53C 196.35,441.17 195.28,440.28 193.14,439.86C 192.767,439.774 192.19,439.715 191.41,439.685C 190.63,439.655 189.644,439.64 188.45,439.64L 177.65,439.64C 176.564,439.64 175.649,439.66 174.905,439.7C 174.162,439.74 173.574,439.804 173.14,439.89C 171.12,440.304 170.11,441.187 170.11,442.54L 170.11,461.5C 170.11,463.14 169.244,463.96 167.51,463.96C 165.777,463.96 164.764,463.96 164.47,463.96C 163.537,463.647 163.07,462.89 163.07,461.69L 163.07,442.51C 163.07,436.757 168.044,433.88 177.99,433.88L 188.62,433.88C 198.467,433.88 203.39,436.714 203.39,442.38L 203.39,461.48 Z "/>
		<path fill="#FFFFFF" fill-opacity="1" stroke-width="0.2" stroke-linejoin="round" d="M 231.01,437.73C 231.01,439.43 230.19,440.28 228.55,440.28L 218.11,440.28L 218.11,461.55C 218.11,463.157 217.244,463.96 215.51,463.96C 213.797,463.96 212.794,463.96 212.5,463.96C 211.547,463.634 211.07,462.894 211.07,461.74L 211.07,440.28C 210.197,440.28 209.485,440.264 208.935,440.23C 208.385,440.197 207.994,440.16 207.76,440.12C 206.72,439.747 206.2,438.84 206.2,437.4C 206.2,435.96 206.72,435.054 207.76,434.68C 207.994,434.64 208.385,434.604 208.935,434.57C 209.485,434.537 210.197,434.52 211.07,434.52L 211.07,428.63C 211.07,427.01 211.937,426.2 213.67,426.2C 215.384,426.2 216.387,426.2 216.68,426.2C 217.634,426.52 218.11,427.277 218.11,428.47L 218.11,434.52L 228.55,434.52C 230.19,434.52 231.01,435.59 231.01,437.73 Z "/>
		<path fill="#FFFFFF" fill-opacity="1" stroke-width="0.2" stroke-linejoin="round" d="M 242.05,430.22C 242.05,431.3 241.594,432.154 240.68,432.78C 239.887,433.32 238.917,433.59 237.77,433.59C 236.624,433.59 235.654,433.32 234.86,432.78C 233.947,432.154 233.49,431.3 233.49,430.22C 233.49,429.134 233.947,428.277 234.86,427.65C 235.654,427.11 236.624,426.84 237.77,426.84C 238.917,426.84 239.887,427.11 240.68,427.65C 241.594,428.277 242.05,429.134 242.05,430.22 Z M 241.15,461.71C 241.15,463.21 240.267,463.96 238.5,463.96C 236.78,463.96 235.774,463.96 235.48,463.96C 234.567,463.647 234.11,462.897 234.11,461.71L 234.11,436.55C 234.11,434.93 234.994,434.12 236.76,434.12C 238.46,434.12 239.454,434.194 239.74,434.34C 240.68,434.647 241.15,435.384 241.15,436.55L 241.15,461.71 Z "/>
		<path fill="#FFFFFF" fill-opacity="1" stroke-width="0.2" stroke-linejoin="round" d="M 286.59,449.68C 286.59,451.52 285.977,452.44 284.75,452.44L 252.03,452.44L 252.03,452.64C 252.03,455.267 253.697,456.957 257.03,457.71C 257.757,457.864 258.814,457.984 260.2,458.07C 261.587,458.157 263.35,458.2 265.49,458.2C 267.117,458.2 267.93,459.264 267.93,461.39C 267.93,463.104 267.117,463.96 265.49,463.96C 263.284,463.96 261.477,463.96 260.07,463.96C 258.664,463.96 257.597,463.96 256.87,463.96C 253.237,463.58 250.537,462.717 248.77,461.37C 246.25,459.457 244.99,457.207 244.99,454.62L 244.99,443.48C 244.99,439.987 246.874,437.397 250.64,435.71C 253.214,434.49 256.62,433.88 260.86,433.88L 273.23,433.88C 276.697,433.88 279.57,434.464 281.85,435.63C 285.01,437.11 286.59,439.344 286.59,442.33L 286.59,449.68 Z M 279.55,446.68L 279.55,443C 279.55,440.76 275.22,439.64 266.56,439.64C 261.454,439.64 257.954,439.827 256.06,440.2C 253.374,440.72 252.03,441.737 252.03,443.25L 252.03,446.68L 279.55,446.68 Z "/>
		<path fill="#FFFFFF" fill-opacity="1" stroke-width="0.2" stroke-linejoin="round" d="M 309.06,437.1C 309.06,438.794 308.084,439.64 306.13,439.64C 305.857,439.64 305.465,439.64 304.955,439.64C 304.445,439.64 304.054,439.64 303.78,439.64C 298.72,439.64 296.19,440.904 296.19,443.43L 296.19,461.68C 296.19,462.887 295.7,463.647 294.72,463.96C 294.32,463.96 293.297,463.96 291.65,463.96C 289.984,463.96 289.15,463.124 289.15,461.45L 289.15,443.2C 289.15,439.267 291.297,436.6 295.59,435.2C 298.07,434.32 301.74,433.88 306.6,433.88C 308.24,433.88 309.06,434.954 309.06,437.1 Z "/>
		<path fill="#FFFFFF" fill-opacity="1" stroke-width="0.2" stroke-linejoin="round" d="M 352.83,455.56C 352.83,461.587 346.497,464.6 333.83,464.6C 333.477,464.6 333.022,464.547 332.465,464.44C 331.909,464.334 331.257,464.174 330.51,463.96C 330.49,463.96 330.407,463.96 330.26,463.96L 329.98,463.96L 329.48,463.96L 328.58,463.96L 327.19,463.96C 316.55,463.96 311.23,461.034 311.23,455.18L 311.23,436.95C 311.23,435.33 312.097,434.52 313.83,434.52C 315.564,434.52 316.577,434.52 316.87,434.52C 317.804,434.827 318.27,435.56 318.27,436.72L 318.27,454.87C 318.27,457.09 321.307,458.2 327.38,458.2L 336.86,458.2C 342.814,458.2 345.79,457.12 345.79,454.96L 345.79,436.72C 345.79,435.56 346.26,434.827 347.2,434.52C 347.487,434.52 348.497,434.52 350.23,434.52C 351.964,434.52 352.83,435.344 352.83,436.99L 352.83,455.56 Z "/>
		<path fill="#FFFFFF" fill-opacity="1" stroke-width="0.2" stroke-linejoin="round" d="M 398.27,461.48C 398.27,463.134 397.4,463.96 395.66,463.96C 393.94,463.96 392.937,463.96 392.65,463.96C 391.704,463.647 391.23,462.894 391.23,461.7L 391.23,442.53C 391.23,441.17 390.16,440.28 388.02,439.86C 387.647,439.774 387.07,439.715 386.29,439.685C 385.51,439.655 384.524,439.64 383.33,439.64L 372.53,439.64C 371.444,439.64 370.529,439.66 369.785,439.7C 369.042,439.74 368.454,439.804 368.02,439.89C 366,440.304 364.99,441.187 364.99,442.54L 364.99,461.5C 364.99,463.14 364.124,463.96 362.39,463.96C 360.657,463.96 359.644,463.96 359.35,463.96C 358.417,463.647 357.95,462.89 357.95,461.69L 357.95,442.51C 357.95,436.757 362.924,433.88 372.87,433.88L 383.5,433.88C 393.347,433.88 398.27,436.714 398.27,442.38L 398.27,461.48 Z "/>
		<path fill="#FFFFFF" fill-opacity="1" stroke-width="0.2" stroke-linejoin="round" d="M 444.35,463.12C 444.35,466.514 442.004,469 437.31,470.58C 434.684,471.714 431.184,472.28 426.81,472.28L 424.06,472.28C 422.414,472.28 421.59,471.207 421.59,469.06C 421.59,467.367 422.414,466.52 424.06,466.52L 428.84,466.52C 429.674,466.52 431.237,466.264 433.53,465.75C 435.904,465.164 437.164,464.567 437.31,463.96L 419.25,463.96C 414.99,463.96 411.487,463.424 408.74,462.35C 404.747,460.817 402.75,458.244 402.75,454.63L 402.75,443.4C 402.75,437.054 408.96,433.88 421.38,433.88C 421.714,433.88 422.12,433.934 422.6,434.04C 423.08,434.147 423.654,434.307 424.32,434.52C 424.34,434.52 424.497,434.52 424.79,434.52L 425.26,434.52L 426.04,434.52L 427.26,434.52C 431.2,434.52 434.764,435.097 437.95,436.25C 442.217,437.85 444.35,440.37 444.35,443.81L 444.35,463.12 Z M 437.31,458.2L 437.31,444.27C 437.31,442.85 436.12,441.78 433.74,441.06C 431.8,440.54 429.997,440.28 428.33,440.28L 418.16,440.28C 415.754,440.28 414.034,440.4 413,440.64C 410.86,441.16 409.79,442.22 409.79,443.82L 409.79,454.51C 409.79,456.97 412.987,458.2 419.38,458.2L 437.31,458.2 Z "/>
		<path fill="#FFFFFF" fill-opacity="1" stroke-width="0.2" stroke-linejoin="round" d="M 485.31,455.45C 485.31,461.124 480.964,463.96 472.27,463.96L 449.98,463.96C 448.36,463.96 447.55,463.104 447.55,461.39C 447.55,459.264 448.357,458.2 449.97,458.2L 472.13,458.2C 476.224,458.2 478.27,457.26 478.27,455.38L 478.27,454.33C 478.27,452.644 476.42,451.8 472.72,451.8L 462.14,451.8C 452.414,451.8 447.55,448.994 447.55,443.38L 447.55,441.72C 447.55,438 450.177,435.62 455.43,434.58C 456.43,434.347 457.894,434.172 459.82,434.055C 461.747,433.939 464.17,433.88 467.09,433.88C 468.737,433.88 469.56,434.96 469.56,437.12C 469.56,438.8 468.737,439.64 467.09,439.64L 462.34,439.64C 459.86,439.64 458.37,439.64 457.87,439.64C 455.684,439.94 454.59,440.63 454.59,441.71L 454.59,443.3C 454.59,445.127 457.274,446.04 462.64,446.04L 473.35,446.04C 481.324,446.04 485.31,448.72 485.31,454.08L 485.31,455.45 Z "/>
		<path fill="#FFFFFF" fill-opacity="1" stroke-width="0.2" stroke-linejoin="round" d="M 514.15,448.5C 514.15,450.274 513.327,451.16 511.68,451.16L 491.18,451.16C 489.974,451.16 489.237,450.944 488.97,450.51C 488.804,450.197 488.72,449.38 488.72,448.06C 488.72,446.287 489.54,445.4 491.18,445.4L 511.68,445.4C 512.847,445.4 513.567,445.617 513.84,446.05C 514.047,446.344 514.15,447.16 514.15,448.5 Z "/>
		<path fill="#FFFFFF" fill-opacity="1" stroke-width="0.2" stroke-linejoin="round" d="M 224.67,527.45C 224.67,533.124 220.324,535.96 211.63,535.96L 189.34,535.96C 187.72,535.96 186.91,535.104 186.91,533.39C 186.91,531.264 187.717,530.2 189.33,530.2L 211.49,530.2C 215.584,530.2 217.63,529.26 217.63,527.38L 217.63,526.33C 217.63,524.644 215.78,523.8 212.08,523.8L 201.5,523.8C 191.774,523.8 186.91,520.994 186.91,515.38L 186.91,513.72C 186.91,510 189.537,507.62 194.79,506.58C 195.79,506.347 197.254,506.172 199.18,506.055C 201.107,505.939 203.53,505.88 206.45,505.88C 208.097,505.88 208.92,506.96 208.92,509.12C 208.92,510.8 208.097,511.64 206.45,511.64L 201.7,511.64C 199.22,511.64 197.73,511.64 197.23,511.64C 195.044,511.94 193.95,512.63 193.95,513.71L 193.95,515.3C 193.95,517.127 196.634,518.04 202,518.04L 212.71,518.04C 220.684,518.04 224.67,520.72 224.67,526.08L 224.67,527.45 Z "/>
		<path fill="#FFFFFF" fill-opacity="1" stroke-width="0.2" stroke-linejoin="round" d="M 251.01,509.73C 251.01,511.43 250.19,512.28 248.55,512.28L 238.11,512.28L 238.11,533.55C 238.11,535.157 237.244,535.96 235.51,535.96C 233.797,535.96 232.794,535.96 232.5,535.96C 231.547,535.634 231.07,534.894 231.07,533.74L 231.07,512.28C 230.197,512.28 229.485,512.264 228.935,512.23C 228.385,512.197 227.994,512.16 227.76,512.12C 226.72,511.747 226.2,510.84 226.2,509.4C 226.2,507.96 226.72,507.054 227.76,506.68C 227.994,506.64 228.385,506.604 228.935,506.57C 229.485,506.537 230.197,506.52 231.07,506.52L 231.07,500.63C 231.07,499.01 231.937,498.2 233.67,498.2C 235.384,498.2 236.387,498.2 236.68,498.2C 237.634,498.52 238.11,499.277 238.11,500.47L 238.11,506.52L 248.55,506.52C 250.19,506.52 251.01,507.59 251.01,509.73 Z "/>
		<path fill="#FFFFFF" fill-opacity="1" stroke-width="0.2" stroke-linejoin="round" d="M 295.71,527.56C 295.71,533.587 289.377,536.6 276.71,536.6C 276.357,536.6 275.902,536.547 275.345,536.44C 274.789,536.334 274.137,536.174 273.39,535.96C 273.37,535.96 273.287,535.96 273.14,535.96L 272.86,535.96L 272.36,535.96L 271.46,535.96L 270.07,535.96C 259.43,535.96 254.11,533.034 254.11,527.18L 254.11,508.95C 254.11,507.33 254.977,506.52 256.71,506.52C 258.444,506.52 259.457,506.52 259.75,506.52C 260.684,506.827 261.15,507.56 261.15,508.72L 261.15,526.87C 261.15,529.09 264.187,530.2 270.26,530.2L 279.74,530.2C 285.694,530.2 288.67,529.12 288.67,526.96L 288.67,508.72C 288.67,507.56 289.14,506.827 290.08,506.52C 290.367,506.52 291.377,506.52 293.11,506.52C 294.844,506.52 295.71,507.344 295.71,508.99L 295.71,527.56 Z "/>
		<path fill="#FFFFFF" fill-opacity="1" stroke-width="0.2" stroke-linejoin="round" d="M 319.63,509.07C 319.63,511.21 318.82,512.28 317.2,512.28L 307.23,512.28L 307.23,533.55C 307.23,535.157 306.364,535.96 304.63,535.96C 302.897,535.96 301.884,535.96 301.59,535.96C 300.657,535.647 300.19,534.9 300.19,533.72L 300.19,507.02C 300.19,501.14 305.234,498.2 315.32,498.2C 317.007,498.2 318.06,498.2 318.48,498.2C 319.247,498.614 319.63,499.637 319.63,501.27C 319.63,503.064 318.82,503.96 317.2,503.96C 314.24,503.96 312.314,503.96 311.42,503.96C 308.627,504.36 307.23,505.214 307.23,506.52L 317.2,506.52C 318.82,506.52 319.63,507.37 319.63,509.07 Z "/>
		<path fill="#FFFFFF" fill-opacity="1" stroke-width="0.2" stroke-linejoin="round" d="M 360.35,521.68C 360.35,523.52 359.737,524.44 358.51,524.44L 325.79,524.44L 325.79,524.64C 325.79,527.267 327.457,528.957 330.79,529.71C 331.517,529.864 332.574,529.984 333.96,530.07C 335.347,530.157 337.11,530.2 339.25,530.2C 340.877,530.2 341.69,531.264 341.69,533.39C 341.69,535.104 340.877,535.96 339.25,535.96C 337.044,535.96 335.237,535.96 333.83,535.96C 332.424,535.96 331.357,535.96 330.63,535.96C 326.997,535.58 324.297,534.717 322.53,533.37C 320.01,531.457 318.75,529.207 318.75,526.62L 318.75,515.48C 318.75,511.987 320.634,509.397 324.4,507.71C 326.974,506.49 330.38,505.88 334.62,505.88L 346.99,505.88C 350.457,505.88 353.33,506.464 355.61,507.63C 358.77,509.11 360.35,511.344 360.35,514.33L 360.35,521.68 Z M 353.31,518.68L 353.31,515C 353.31,512.76 348.98,511.64 340.32,511.64C 335.214,511.64 331.714,511.827 329.82,512.2C 327.134,512.72 325.79,513.737 325.79,515.25L 325.79,518.68L 353.31,518.68 Z "/>
	</g>
	<path fill="#FFFFFF" fill-opacity="1" stroke-width="0.2" stroke-linejoin="round" d="M 118.177,160.304L 24.5139,322.534L 211.841,322.534L 118.177,160.304 Z "/>
	<path fill="#FFFFFF" fill-opacity="1" stroke-width="0.2" stroke-linejoin="round" d="M 412.231,251.536L 351.129,357.368L 473.333,357.368L 412.231,251.536 Z "/>
</svg>
