<?xml version="1.0" encoding="utf-8"?>
<!DOCTYPE svg PUBLIC "-//W3C//DTD SVG 1.1//EN" "http://www.w3.org/Graphics/SVG/1.1/DTD/svg11.dtd">
<svg xmlns="http://www.w3.org/2000/svg" xmlns:xlink="http://www.w3.org/1999/xlink" version="1.1" baseProfile="full" width="533.333" height="533.333" viewBox="0 0 533.33 533.33" enable-background="new 0 0 533.33 533.33" xml:space="preserve">
	<path fill="#FFFFFF" fill-opacity="1" stroke-width="0.2" stroke-linejoin="round" d="M 273.751,142.933C 273.751,142.933 177.04,75.7325 95.6179,119.466C 14.1956,163.199 131.885,402.133 150.018,410.666C 160.085,422.417 187.351,438.399 253.485,411.733C 273.679,427.217 285.679,428.817 306.818,424.533C 361.675,423.217 518.632,212.497 481.751,148.266C 444.871,84.0343 329.218,123.733 315.351,135.466C 301.485,147.199 286.551,146.133 286.551,146.133C 286.551,146.133 287.618,104.533 272.685,105.599C 278.018,94.9326 273.751,44.7993 226.818,42.666C 136.151,41.5994 149.689,10.3389 148.8,12.65C 144.178,15.3167 158.551,132.266 260.951,106.666C 276.951,109.866 276.951,133.333 276.951,132.266C 276.951,131.199 273.751,146.133 273.751,142.933 Z "/>
	<g>
		<path fill="#FFC029" fill-opacity="1" stroke-width="0.2" stroke-linejoin="round" d="M 167.682,205.897C 167.682,208.832 167.224,211.123 166.31,212.771C 163.852,217.238 156.417,219.472 144.004,219.472L 109.824,219.472C 107.547,219.472 106.409,218.286 106.409,215.914C 106.409,214.295 106.585,213.171 106.938,212.542C 107.443,211.675 108.405,211.242 109.824,211.242L 143.861,211.242C 153.035,211.242 157.622,209.656 157.622,206.483L 157.622,202.154C 157.622,199.067 153.192,197.386 144.333,197.11L 128.043,196.609C 127.281,196.552 126.2,196.455 124.799,196.316C 123.399,196.178 121.684,195.971 119.655,195.695C 116.121,195.276 113.087,194.09 110.553,192.137C 107.79,189.974 106.409,187.136 106.409,183.62L 106.409,179.476C 106.409,173.084 110.067,168.864 117.383,166.816C 120.746,165.949 126.905,165.516 135.859,165.516C 138.184,165.516 139.346,167.069 139.346,170.174C 139.346,171.975 138.646,173.103 137.245,173.561C 137.036,173.685 135.621,173.746 133.001,173.746C 121.98,173.746 116.469,175.542 116.469,179.134L 116.469,182.706C 116.469,184.925 118.469,186.373 122.47,187.05C 123.242,187.183 124.354,187.286 125.807,187.357C 127.259,187.428 129.048,187.464 131.172,187.464L 144.276,187.464C 150.553,187.464 155.502,188.288 159.122,189.936C 164.828,192.337 167.682,196.024 167.682,200.996L 167.682,205.897 Z "/>
		<path fill="#FFC029" fill-opacity="1" stroke-width="0.2" stroke-linejoin="round" d="M 233.298,215.8C 233.298,218.248 231.836,219.472 228.911,219.472L 194.045,219.472C 187.348,219.472 182.481,218.829 179.442,217.543C 174.04,215.514 171.34,211.823 171.34,206.469L 171.34,189.536C 171.34,180.839 178.251,176.49 192.073,176.49L 229.411,176.49C 231.85,176.49 233.07,177.862 233.07,180.605C 233.07,183.349 231.85,184.721 229.411,184.721L 192.745,184.721C 185.181,184.721 181.399,186.288 181.399,189.422L 181.399,205.883C 181.399,209.455 185.7,211.242 194.303,211.242L 229.769,211.242C 232.122,211.242 233.298,212.761 233.298,215.8 Z "/>
		<path fill="#FFC029" fill-opacity="1" stroke-width="0.2" stroke-linejoin="round" d="M 297.543,216.257C 297.543,217.953 296.876,219.025 295.543,219.472C 295.123,219.472 293.675,219.472 291.199,219.472C 288.722,219.472 287.483,218.324 287.483,216.029L 287.483,191.351C 287.483,188.76 285.978,187.059 282.968,186.25C 280.986,185.84 278.481,185.635 275.452,185.635L 249.074,185.635L 249.074,216.029C 249.074,218.324 247.835,219.472 245.358,219.472C 242.882,219.472 241.434,219.472 241.014,219.472C 239.681,219.025 239.014,217.948 239.014,216.243L 239.014,168.745C 239.014,167.011 239.681,165.935 241.014,165.516C 241.529,165.516 242.977,165.516 245.358,165.516C 247.835,165.516 249.074,166.673 249.074,168.988L 249.074,177.405L 273.88,177.405C 281.215,177.405 286.364,178 289.327,179.191C 294.804,181.21 297.543,185.13 297.543,190.951L 297.543,216.257 Z "/>
		<path fill="#FFC029" fill-opacity="1" stroke-width="0.2" stroke-linejoin="round" d="M 363.388,207.469C 363.388,216.081 354.338,220.387 336.239,220.387C 335.734,220.387 335.083,220.311 334.288,220.158C 333.493,220.006 332.561,219.777 331.494,219.472C 331.466,219.472 331.347,219.472 331.137,219.472L 330.737,219.472L 330.023,219.472L 328.737,219.472L 326.75,219.472C 311.547,219.472 303.945,215.29 303.945,206.926L 303.945,180.877C 303.945,178.562 305.183,177.405 307.66,177.405C 310.137,177.405 311.585,177.405 312.004,177.405C 313.337,177.843 314.004,178.891 314.004,180.548L 314.004,206.483C 314.004,209.656 318.344,211.242 327.022,211.242L 340.568,211.242C 349.075,211.242 353.329,209.698 353.329,206.612L 353.329,180.548C 353.329,178.891 354,177.843 355.343,177.405C 355.753,177.405 357.196,177.405 359.673,177.405C 362.15,177.405 363.388,178.581 363.388,180.934L 363.388,207.469 Z "/>
		<path fill="#FFC029" fill-opacity="1" stroke-width="0.2" stroke-linejoin="round" d="M 380.764,215.957C 380.764,218.301 379.526,219.472 377.049,219.472C 374.601,219.472 373.167,219.472 372.748,219.472C 371.386,218.996 370.704,217.924 370.704,216.257L 370.704,168.988C 370.704,166.673 371.943,165.516 374.42,165.516C 376.744,165.516 378.192,165.516 378.764,165.516C 380.097,165.935 380.764,167.002 380.764,168.717L 380.764,215.957 Z "/>
		<path fill="#FFC029" fill-opacity="1" stroke-width="0.2" stroke-linejoin="round" d="M 422.889,197.381C 422.889,199.915 421.713,201.182 419.36,201.182L 390.066,201.182C 388.342,201.182 387.29,200.872 386.909,200.253C 386.67,199.805 386.551,198.638 386.551,196.752C 386.551,194.218 387.723,192.951 390.066,192.951L 419.36,192.951C 421.027,192.951 422.056,193.261 422.446,193.88C 422.741,194.299 422.889,195.466 422.889,197.381 Z "/>
		<path fill="#FFC029" fill-opacity="1" stroke-width="0.2" stroke-linejoin="round" d="M 143.904,318.84C 143.904,321.184 142.666,322.355 140.189,322.355C 137.741,322.355 136.307,322.355 135.888,322.355C 134.526,321.879 133.844,320.807 133.844,319.14L 133.844,271.871C 133.844,269.556 135.083,268.399 137.56,268.399C 139.884,268.399 141.332,268.399 141.904,268.399C 143.237,268.818 143.904,269.885 143.904,271.6L 143.904,318.84 Z "/>
		<path fill="#FFC029" fill-opacity="1" stroke-width="0.2" stroke-linejoin="round" d="M 207.92,301.95C 207.92,304.58 207.044,305.894 205.291,305.894L 158.536,305.894L 158.536,306.18C 158.536,309.933 160.918,312.348 165.681,313.425C 166.719,313.644 168.229,313.815 170.211,313.939C 172.192,314.063 174.712,314.125 177.77,314.125C 180.094,314.125 181.256,315.644 181.256,318.683C 181.256,321.131 180.094,322.355 177.77,322.355C 174.617,322.355 172.035,322.355 170.025,322.355C 168.015,322.355 166.491,322.355 165.452,322.355C 160.261,321.813 156.403,320.579 153.878,318.655C 150.277,315.921 148.477,312.705 148.477,309.009L 148.477,293.091C 148.477,288.099 151.168,284.398 156.55,281.988C 160.227,280.245 165.095,279.373 171.154,279.373L 188.83,279.373C 193.783,279.373 197.889,280.207 201.147,281.874C 205.663,283.989 207.92,287.18 207.92,291.448L 207.92,301.95 Z M 197.861,297.664L 197.861,292.405C 197.861,289.204 191.673,287.604 179.299,287.604C 172.002,287.604 167,287.871 164.295,288.404C 160.456,289.147 158.536,290.6 158.536,292.762L 158.536,297.664L 197.861,297.664 Z "/>
		<path fill="#FFC029" fill-opacity="1" stroke-width="0.2" stroke-linejoin="round" d="M 271.937,308.995C 271.937,317.902 264.554,322.355 249.788,322.355L 235.399,322.355C 230.159,322.355 225.349,321.417 220.966,319.54C 215.317,317.14 212.493,313.663 212.493,309.109L 212.493,271.614C 212.493,269.89 213.16,268.818 214.493,268.399C 214.913,268.399 216.361,268.399 218.837,268.399C 221.314,268.399 222.553,269.575 222.553,271.928L 222.553,280.288L 250.088,280.288C 264.654,280.288 271.937,284.665 271.937,293.42L 271.937,308.995 Z M 261.877,308.466L 261.877,293.834C 261.877,290.29 257.809,288.518 249.674,288.518L 222.553,288.518L 222.553,308.938C 222.553,310.795 224.496,312.196 228.383,313.139C 229.783,313.453 231.167,313.696 232.534,313.868C 233.901,314.039 235.284,314.125 236.685,314.125L 249.588,314.125C 251.55,314.125 253.167,314.082 254.439,313.996C 255.711,313.911 256.676,313.796 257.333,313.653C 260.362,312.939 261.877,311.21 261.877,308.466 Z "/>
		<path fill="#FFC029" fill-opacity="1" stroke-width="0.2" stroke-linejoin="round" d="M 335.953,301.95C 335.953,304.58 335.076,305.894 333.323,305.894L 286.569,305.894L 286.569,306.18C 286.569,309.933 288.95,312.348 293.713,313.425C 294.752,313.644 296.262,313.815 298.243,313.939C 300.225,314.063 302.744,314.125 305.802,314.125C 308.127,314.125 309.289,315.644 309.289,318.683C 309.289,321.131 308.127,322.355 305.802,322.355C 302.649,322.355 300.067,322.355 298.057,322.355C 296.047,322.355 294.523,322.355 293.485,322.355C 288.293,321.813 284.435,320.579 281.91,318.655C 278.31,315.921 276.509,312.705 276.509,309.009L 276.509,293.091C 276.509,288.099 279.2,284.398 284.583,281.988C 288.26,280.245 293.128,279.373 299.186,279.373L 316.862,279.373C 321.816,279.373 325.922,280.207 329.18,281.874C 333.695,283.989 335.953,287.18 335.953,291.448L 335.953,301.95 Z M 325.893,297.664L 325.893,292.405C 325.893,289.204 319.706,287.604 307.331,287.604C 300.034,287.604 295.033,287.871 292.327,288.404C 288.488,289.147 286.569,290.6 286.569,292.762L 286.569,297.664L 325.893,297.664 Z "/>
		<path fill="#FFC029" fill-opacity="1" stroke-width="0.2" stroke-linejoin="round" d="M 399.054,318.812C 399.054,321.174 397.811,322.355 395.325,322.355C 392.867,322.355 391.433,322.355 391.024,322.355C 389.671,321.908 388.995,320.831 388.995,319.126L 388.995,291.733C 388.995,289.79 387.466,288.518 384.408,287.918C 383.874,287.794 383.05,287.711 381.936,287.668C 380.821,287.625 379.411,287.604 377.706,287.604L 362.274,287.604C 360.721,287.604 359.413,287.632 358.351,287.69C 357.289,287.747 356.448,287.837 355.829,287.961C 352.943,288.552 351.5,289.814 351.5,291.748L 351.5,318.84C 351.5,321.184 350.261,322.355 347.784,322.355C 345.307,322.355 343.859,322.355 343.44,322.355C 342.107,321.908 341.44,320.827 341.44,319.112L 341.44,291.705C 341.44,283.484 348.546,279.373 362.76,279.373L 377.949,279.373C 392.019,279.373 399.054,283.422 399.054,291.519L 399.054,318.812 Z "/>
	</g>
</svg>
