<?xml version="1.0" encoding="utf-8"?>
<!DOCTYPE svg PUBLIC "-//W3C//DTD SVG 1.1//EN" "http://www.w3.org/Graphics/SVG/1.1/DTD/svg11.dtd">
<svg xmlns="http://www.w3.org/2000/svg" xmlns:xlink="http://www.w3.org/1999/xlink" version="1.1" baseProfile="full" width="533.333" height="533.333" viewBox="0 0 533.33 533.33" enable-background="new 0 0 533.33 533.33" xml:space="preserve">
	<rect x="103.744" y="155.465" fill="#FFFFFF" fill-opacity="1" stroke-width="0.2" stroke-linejoin="round" width="267.187" height="173.591"/>
	<rect x="115.743" y="162.665" fill="#FFFFFF" fill-opacity="1" stroke-width="0.2" stroke-linejoin="round" width="261.587" height="171.191"/>
	<rect x="109.344" y="159.465" fill="#FFC029" fill-opacity="1" stroke-width="0.2" stroke-linejoin="round" width="254.387" height="166.392"/>
	<g>
		<path fill="#FFFFFF" fill-opacity="1" stroke-width="0.2" stroke-linejoin="round" d="M 168.144,369.29C 168.144,371.8 166.924,373.055 164.484,373.055L 141.384,373.055L 141.384,417.395C 141.384,419.835 140.159,421.055 137.709,421.055C 135.219,421.055 133.674,421.055 133.074,421.055C 131.574,420.625 130.824,419.49 130.824,417.65L 130.824,373.055L 107.904,373.055C 105.434,373.055 104.199,371.8 104.199,369.29C 104.199,367.57 104.384,366.39 104.754,365.75C 105.254,364.86 106.304,364.415 107.904,364.415L 164.484,364.415C 166.924,364.415 168.144,366.04 168.144,369.29 Z "/>
		<path fill="#FFFFFF" fill-opacity="1" stroke-width="0.2" stroke-linejoin="round" d="M 211.944,399.635C 211.944,402.395 211.024,403.775 209.184,403.775L 160.104,403.775L 160.104,404.075C 160.104,408.015 162.604,410.55 167.604,411.68C 168.694,411.91 170.279,412.09 172.359,412.22C 174.439,412.35 177.084,412.415 180.294,412.415C 182.734,412.415 183.954,414.01 183.954,417.2C 183.954,419.77 182.734,421.055 180.294,421.055C 176.984,421.055 174.274,421.055 172.164,421.055C 170.054,421.055 168.454,421.055 167.364,421.055C 161.914,420.485 157.864,419.19 155.214,417.17C 151.434,414.3 149.544,410.925 149.544,407.045L 149.544,390.335C 149.544,385.095 152.369,381.21 158.019,378.68C 161.879,376.85 166.989,375.935 173.349,375.935L 191.904,375.935C 197.104,375.935 201.414,376.81 204.834,378.56C 209.574,380.78 211.944,384.13 211.944,388.61L 211.944,399.635 Z M 201.384,395.135L 201.384,389.615C 201.384,386.255 194.889,384.575 181.899,384.575C 174.239,384.575 168.989,384.855 166.149,385.415C 162.119,386.195 160.104,387.72 160.104,389.99L 160.104,395.135L 201.384,395.135 Z "/>
		<path fill="#FFFFFF" fill-opacity="1" stroke-width="0.2" stroke-linejoin="round" d="M 245.649,380.765C 245.649,383.305 244.184,384.575 241.254,384.575C 240.844,384.575 240.256,384.575 239.491,384.575C 238.726,384.575 238.139,384.575 237.729,384.575C 230.139,384.575 226.344,386.47 226.344,390.26L 226.344,417.635C 226.344,419.445 225.609,420.585 224.139,421.055C 223.539,421.055 222.004,421.055 219.534,421.055C 217.034,421.055 215.784,419.8 215.784,417.29L 215.784,389.915C 215.784,384.015 219.004,380.015 225.444,377.915C 229.164,376.595 234.669,375.935 241.959,375.935C 244.419,375.935 245.649,377.545 245.649,380.765 Z "/>
		<path fill="#FFFFFF" fill-opacity="1" stroke-width="0.2" stroke-linejoin="round" d="M 333.384,417.335C 333.384,419.815 332.089,421.055 329.499,421.055C 326.909,421.055 325.399,421.055 324.969,421.055C 323.539,420.585 322.824,419.46 322.824,417.68L 322.824,389.93C 322.824,386.36 318.719,384.575 310.509,384.575L 309.219,384.575L 308.634,384.575C 308.294,384.575 308.109,384.575 308.079,384.575C 304.139,384.735 301.529,385.015 300.249,385.415C 297.379,386.295 295.944,388.21 295.944,391.16L 295.944,417.665C 295.944,419.455 295.234,420.585 293.814,421.055C 293.384,421.055 291.879,421.055 289.299,421.055C 286.689,421.055 285.384,419.825 285.384,417.365L 285.384,390.92C 285.384,388.28 284.459,386.49 282.609,385.55C 281.339,384.9 279.264,384.575 276.384,384.575L 275.199,384.575L 274.419,384.575L 274.014,384.575C 273.774,384.575 273.639,384.575 273.609,384.575C 272.999,384.575 272.466,384.575 272.011,384.575C 271.556,384.575 271.179,384.575 270.879,384.575C 262.629,384.575 258.504,386.39 258.504,390.02L 258.504,417.68C 258.504,419.46 257.804,420.585 256.404,421.055C 255.964,421.055 254.444,421.055 251.844,421.055C 249.244,421.055 247.944,419.815 247.944,417.335L 247.944,390.665C 247.944,380.845 255.164,375.935 269.604,375.935C 272.464,375.935 274.796,375.935 276.601,375.935C 278.406,375.935 279.749,375.935 280.629,375.935C 284.369,376.345 287.824,377.485 290.994,379.355C 293.824,377.605 297.309,376.465 301.449,375.935C 303.649,375.935 307.339,375.935 312.519,375.935C 326.429,375.935 333.384,380.845 333.384,390.665L 333.384,417.335 Z "/>
		<path fill="#FFFFFF" fill-opacity="1" stroke-width="0.2" stroke-linejoin="round" d="M 352.974,370.445C 352.974,372.065 352.289,373.345 350.919,374.285C 349.729,375.095 348.274,375.5 346.554,375.5C 344.834,375.5 343.379,375.095 342.189,374.285C 340.819,373.345 340.134,372.065 340.134,370.445C 340.134,368.815 340.819,367.53 342.189,366.59C 343.379,365.78 344.834,365.375 346.554,365.375C 348.274,365.375 349.729,365.78 350.919,366.59C 352.289,367.53 352.974,368.815 352.974,370.445 Z M 351.624,417.68C 351.624,419.93 350.299,421.055 347.649,421.055C 345.069,421.055 343.559,421.055 343.119,421.055C 341.749,420.585 341.064,419.46 341.064,417.68L 341.064,379.94C 341.064,377.51 342.389,376.295 345.039,376.295C 347.589,376.295 349.079,376.405 349.509,376.625C 350.919,377.085 351.624,378.19 351.624,379.94L 351.624,417.68 Z "/>
		<path fill="#FFFFFF" fill-opacity="1" stroke-width="0.2" stroke-linejoin="round" d="M 419.784,417.335C 419.784,419.815 418.479,421.055 415.869,421.055C 413.289,421.055 411.784,421.055 411.354,421.055C 409.934,420.585 409.224,419.455 409.224,417.665L 409.224,388.91C 409.224,386.87 407.619,385.535 404.409,384.905C 403.849,384.775 402.984,384.687 401.814,384.642C 400.644,384.597 399.164,384.575 397.374,384.575L 381.174,384.575C 379.544,384.575 378.171,384.605 377.056,384.665C 375.941,384.725 375.059,384.82 374.409,384.95C 371.379,385.57 369.864,386.895 369.864,388.925L 369.864,417.365C 369.864,419.825 368.564,421.055 365.964,421.055C 363.364,421.055 361.844,421.055 361.404,421.055C 360.004,420.585 359.304,419.45 359.304,417.65L 359.304,388.88C 359.304,380.25 366.764,375.935 381.684,375.935L 397.629,375.935C 412.399,375.935 419.784,380.185 419.784,388.685L 419.784,417.335 Z "/>
		<path fill="#FFFFFF" fill-opacity="1" stroke-width="0.2" stroke-linejoin="round" d="M 487.944,399.635C 487.944,402.395 487.024,403.775 485.184,403.775L 436.104,403.775L 436.104,404.075C 436.104,408.015 438.604,410.55 443.604,411.68C 444.694,411.91 446.279,412.09 448.359,412.22C 450.439,412.35 453.084,412.415 456.294,412.415C 458.734,412.415 459.954,414.01 459.954,417.2C 459.954,419.77 458.734,421.055 456.294,421.055C 452.984,421.055 450.274,421.055 448.164,421.055C 446.054,421.055 444.454,421.055 443.364,421.055C 437.914,420.485 433.864,419.19 431.214,417.17C 427.434,414.3 425.544,410.925 425.544,407.045L 425.544,390.335C 425.544,385.095 428.369,381.21 434.019,378.68C 437.879,376.85 442.989,375.935 449.349,375.935L 467.904,375.935C 473.104,375.935 477.414,376.81 480.834,378.56C 485.574,380.78 487.944,384.13 487.944,388.61L 487.944,399.635 Z M 477.384,395.135L 477.384,389.615C 477.384,386.255 470.889,384.575 457.899,384.575C 450.239,384.575 444.989,384.855 442.149,385.415C 438.119,386.195 436.104,387.72 436.104,389.99L 436.104,395.135L 477.384,395.135 Z "/>
	</g>
	<path fill="#FFFFFF" fill-opacity="1" stroke-width="0.2" stroke-linejoin="round" d="M 195.739,221.062L 115.743,229.861L 199.739,317.857L 480.525,168.264L 411.728,132.266L 215.738,261.86L 195.739,221.062 Z "/>
</svg>
